<svg width="167" height="73" viewBox="0 0 167 73" fill="none" xmlns="http://www.w3.org/2000/svg">
<path d="M7.93714 54.1603C8.30184 52.2621 7.05862 50.4276 5.16033 50.0629C3.26205 49.6982 1.42755 50.9414 1.06286 52.8397L7.93714 54.1603ZM52.6565 56.2894C54.5625 55.968 55.8472 54.1622 55.5257 52.2561C55.2043 50.3501 53.3986 49.0654 51.4925 49.3869L52.6565 56.2894ZM105.43 40.3679C103.529 40.721 102.275 42.5479 102.628 44.4483C102.981 46.3488 104.808 47.6032 106.709 47.2501L105.43 40.3679ZM4.5 53.5L1.06286 52.8397C0.973433 53.3051 0.870947 54.1339 1.12829 55.1155C1.39695 56.1401 1.9856 57.0599 2.84965 57.8038C4.41649 59.1528 6.81241 59.8664 9.99068 60.211C16.5024 60.9168 28.8823 60.2985 52.6565 56.2894L52.0745 52.8381L51.4925 49.3869C27.7678 53.3876 16.2175 53.8449 10.7451 53.2517C7.9313 52.9467 7.32173 52.4171 7.41687 52.499C7.54507 52.6094 7.78132 52.8897 7.89942 53.3401C8.00621 53.7474 7.95502 54.0673 7.93714 54.1603L4.5 53.5ZM152.995 28.4678L149.544 29.0526C149.359 27.9601 150.17 27.7079 149.282 28.4066C148.429 29.0772 146.662 30.0569 143.345 31.278C136.778 33.6958 125.153 36.703 105.43 40.3679L106.069 43.809L106.709 47.2501C126.511 43.5705 138.616 40.4782 145.763 37.847C149.303 36.5436 151.889 35.2615 153.609 33.9086C155.294 32.5838 156.897 30.5466 156.445 27.883L152.995 28.4678Z" fill="#F5D0BC"/>
<ellipse cx="78.5068" cy="37.9159" rx="33.2204" ry="30.106" transform="rotate(-8.96673 78.5068 37.9159)" fill="#D3C1D7" stroke="#D9CADD" stroke-width="1.7"/>
<path d="M153.565 28.8781C152.714 23.8547 118.475 25.4679 77.0918 32.4813C35.7082 39.4947 3.1516 48.9939 4.00294 54.0174" stroke="#F7C7AD" stroke-width="6"/>
<mask id="path-4-outside-1_1_52" maskUnits="userSpaceOnUse" x="2" y="5" width="71" height="20" fill="black">
<rect fill="white" x="2" y="5" width="71" height="20"/>
<path d="M3.2017 24V5.81818H14.1037V7.77131H5.40341V13.9148H13.2869V15.8679H5.40341V24H3.2017ZM24.8263 5.81818V24H22.6246V5.81818H24.8263ZM48.4084 5.81818V24H46.2777L36.37 9.72443H36.1925V24H33.9908V5.81818H36.1214L46.0646 20.1293H46.2422V5.81818H48.4084ZM58.3097 24H56.0015L62.6776 5.81818H64.9504L71.6265 24H69.3183L63.885 8.6946H63.743L58.3097 24ZM59.162 16.8977H68.466V18.8509H59.162V16.8977Z"/>
</mask>
<path d="M3.2017 24V5.81818H14.1037V7.77131H5.40341V13.9148H13.2869V15.8679H5.40341V24H3.2017ZM24.8263 5.81818V24H22.6246V5.81818H24.8263ZM48.4084 5.81818V24H46.2777L36.37 9.72443H36.1925V24H33.9908V5.81818H36.1214L46.0646 20.1293H46.2422V5.81818H48.4084ZM58.3097 24H56.0015L62.6776 5.81818H64.9504L71.6265 24H69.3183L63.885 8.6946H63.743L58.3097 24ZM59.162 16.8977H68.466V18.8509H59.162V16.8977Z" fill="#7D7FFF"/>
<path d="M3.2017 24H2.5017L3.2017 24.7V24ZM3.2017 5.81818V5.11818L2.5017 5.81818H3.2017ZM14.1037 5.81818H14.8037L14.1037 5.11818V5.81818ZM14.1037 7.77131V8.47131L14.8037 7.77131H14.1037ZM5.40341 7.77131V7.07131L4.70341 7.77131H5.40341ZM5.40341 13.9148H4.70341L5.40341 14.6148V13.9148ZM13.2869 13.9148H13.9869L13.2869 13.2148V13.9148ZM13.2869 15.8679V16.5679L13.9869 15.8679H13.2869ZM5.40341 15.8679V15.1679L4.70341 15.8679H5.40341ZM5.40341 24V24.7L6.10341 24H5.40341ZM3.2017 24H3.9017V5.81818H3.2017H2.5017V24H3.2017ZM3.2017 5.81818V6.51818H14.1037V5.81818V5.11818H3.2017V5.81818ZM14.1037 5.81818H13.4037V7.77131H14.1037H14.8037V5.81818H14.1037ZM14.1037 7.77131V7.07131H5.40341V7.77131V8.47131H14.1037V7.77131ZM5.40341 7.77131H4.70341V13.9148H5.40341H6.10341V7.77131H5.40341ZM5.40341 13.9148V14.6148H13.2869V13.9148V13.2148H5.40341V13.9148ZM13.2869 13.9148H12.5869V15.8679H13.2869H13.9869V13.9148H13.2869ZM13.2869 15.8679V15.1679H5.40341V15.8679V16.5679H13.2869V15.8679ZM5.40341 15.8679H4.70341V24H5.40341H6.10341V15.8679H5.40341ZM5.40341 24V23.3H3.2017V24V24.7H5.40341V24ZM24.8263 5.81818H25.5263L24.8263 5.11818V5.81818ZM24.8263 24V24.7L25.5263 24H24.8263ZM22.6246 24H21.9246L22.6246 24.7V24ZM22.6246 5.81818V5.11818L21.9246 5.81818H22.6246ZM24.8263 5.81818H24.1263V24H24.8263H25.5263V5.81818H24.8263ZM24.8263 24V23.3H22.6246V24V24.7H24.8263V24ZM22.6246 24H23.3246V5.81818H22.6246H21.9246V24H22.6246ZM22.6246 5.81818V6.51818H24.8263V5.81818V5.11818H22.6246V5.81818ZM48.4084 5.81818H49.1084L48.4084 5.11818V5.81818ZM48.4084 24V24.7L49.1084 24H48.4084ZM46.2777 24L45.7026 24.3991L46.2777 24.7V24ZM36.37 9.72443L36.9451 9.32532L36.37 9.02443V9.72443ZM36.1925 9.72443V9.02443L35.4925 9.72443H36.1925ZM36.1925 24V24.7L36.8925 24H36.1925ZM33.9908 24H33.2908L33.9908 24.7V24ZM33.9908 5.81818V5.11818L33.2908 5.81818H33.9908ZM36.1214 5.81818L36.6963 5.41877L36.1214 5.11818V5.81818ZM46.0646 20.1293L45.4898 20.5287L46.0646 20.8293V20.1293ZM46.2422 20.1293V20.8293L46.9422 20.1293H46.2422ZM46.2422 5.81818V5.11818L45.5422 5.81818H46.2422ZM48.4084 5.81818H47.7084V24H48.4084H49.1084V5.81818H48.4084ZM48.4084 24V23.3H46.2777V24V24.7H48.4084V24ZM46.2777 24L46.8528 23.6009L36.9451 9.32532L36.37 9.72443L35.795 10.1235L45.7026 24.3991L46.2777 24ZM36.37 9.72443V9.02443H36.1925V9.72443V10.4244H36.37V9.72443ZM36.1925 9.72443H35.4925V24H36.1925H36.8925V9.72443H36.1925ZM36.1925 24V23.3H33.9908V24V24.7H36.1925V24ZM33.9908 24H34.6908V5.81818H33.9908H33.2908V24H33.9908ZM33.9908 5.81818V6.51818H36.1214V5.81818V5.11818H33.9908V5.81818ZM36.1214 5.81818L35.5466 6.21759L45.4898 20.5287L46.0646 20.1293L46.6395 19.7299L36.6963 5.41877L36.1214 5.81818ZM46.0646 20.1293V20.8293H46.2422V20.1293V19.4293H46.0646V20.1293ZM46.2422 20.1293H46.9422V5.81818H46.2422H45.5422V20.1293H46.2422ZM46.2422 5.81818V6.51818H48.4084V5.81818V5.11818H46.2422V5.81818ZM58.3097 24V24.7L58.9694 24.2342L58.3097 24ZM56.0015 24L55.3444 23.7587L56.0015 24.7V24ZM62.6776 5.81818V5.11818L62.0205 5.5769L62.6776 5.81818ZM64.9504 5.81818L65.6075 5.5769L64.9504 5.11818V5.81818ZM71.6265 24V24.7L72.2836 23.7587L71.6265 24ZM69.3183 24L68.6586 24.2342L69.3183 24.7V24ZM63.885 8.6946L64.5447 8.46043L63.885 7.9946V8.6946ZM63.743 8.6946V7.9946L63.0833 8.46043L63.743 8.6946ZM59.162 16.8977V16.1977L58.462 16.8977H59.162ZM68.466 16.8977H69.166L68.466 16.1977V16.8977ZM68.466 18.8509V19.5509L69.166 18.8509H68.466ZM59.162 18.8509H58.462L59.162 19.5509V18.8509ZM58.3097 24V23.3H56.0015V24V24.7H58.3097V24ZM56.0015 24L56.6586 24.2413L63.3347 6.05946L62.6776 5.81818L62.0205 5.5769L55.3444 23.7587L56.0015 24ZM62.6776 5.81818V6.51818H64.9504V5.81818V5.11818H62.6776V5.81818ZM64.9504 5.81818L64.2933 6.05946L70.9694 24.2413L71.6265 24L72.2836 23.7587L65.6075 5.5769L64.9504 5.81818ZM71.6265 24V23.3H69.3183V24V24.7H71.6265V24ZM69.3183 24L69.9779 23.7658L64.5447 8.46043L63.885 8.6946L63.2254 8.92878L68.6586 24.2342L69.3183 24ZM63.885 8.6946V7.9946H63.743V8.6946V9.3946H63.885V8.6946ZM63.743 8.6946L63.0833 8.46043L57.6501 23.7658L58.3097 24L58.9694 24.2342L64.4027 8.92878L63.743 8.6946ZM59.162 16.8977V17.5977H68.466V16.8977V16.1977H59.162V16.8977ZM68.466 16.8977H67.766V18.8509H68.466H69.166V16.8977H68.466ZM68.466 18.8509V18.1509H59.162V18.8509V19.5509H68.466V18.8509ZM59.162 18.8509H59.862V16.8977H59.162H58.462V18.8509H59.162Z" fill="#5154FF" mask="url(#path-4-outside-1_1_52)"/>
<mask id="path-6-outside-2_1_52" maskUnits="userSpaceOnUse" x="78" y="42" width="89" height="23" fill="black">
<rect fill="white" x="78" y="42" width="89" height="23"/>
<path d="M85.5 62H80.1136V44.5455H85.7386C87.4318 44.5455 88.8807 44.8949 90.0852 45.5938C91.2898 46.2869 92.2131 47.2841 92.8551 48.5852C93.4972 49.8807 93.8182 51.4318 93.8182 53.2386C93.8182 55.0568 93.4943 56.6222 92.8466 57.9347C92.1989 59.2415 91.2557 60.2472 90.017 60.9517C88.7784 61.6506 87.2727 62 85.5 62ZM82.2273 60.125H85.3636C86.8068 60.125 88.0028 59.8466 88.9517 59.2898C89.9006 58.733 90.608 57.9403 91.0739 56.9119C91.5398 55.8835 91.7727 54.6591 91.7727 53.2386C91.7727 51.8295 91.5426 50.6165 91.0824 49.5994C90.6222 48.5767 89.9347 47.7926 89.0199 47.2472C88.1051 46.696 86.9659 46.4205 85.6023 46.4205H82.2273V60.125ZM102.164 62V44.5455H112.698V46.4205H104.277V52.3182H112.152V54.1932H104.277V60.125H112.834V62H102.164ZM121.307 62V44.5455H123.421V60.125H131.535V62H121.307ZM141.721 44.5455V62H139.607V44.5455H141.721ZM164.804 50H162.691C162.566 49.392 162.347 48.858 162.035 48.3977C161.728 47.9375 161.353 47.5511 160.91 47.2386C160.472 46.9205 159.986 46.6818 159.452 46.5227C158.918 46.3636 158.361 46.2841 157.782 46.2841C156.725 46.2841 155.767 46.5511 154.91 47.0852C154.057 47.6193 153.378 48.4062 152.873 49.446C152.373 50.4858 152.123 51.7614 152.123 53.2727C152.123 54.7841 152.373 56.0597 152.873 57.0994C153.378 58.1392 154.057 58.9261 154.91 59.4602C155.767 59.9943 156.725 60.2614 157.782 60.2614C158.361 60.2614 158.918 60.1818 159.452 60.0227C159.986 59.8636 160.472 59.6278 160.91 59.3153C161.353 58.9972 161.728 58.608 162.035 58.1477C162.347 57.6818 162.566 57.1477 162.691 56.5455H164.804C164.645 57.4375 164.356 58.2358 163.935 58.9403C163.515 59.6449 162.992 60.2443 162.367 60.7386C161.742 61.2273 161.04 61.5994 160.262 61.8551C159.489 62.1108 158.662 62.2386 157.782 62.2386C156.293 62.2386 154.969 61.875 153.81 61.1477C152.651 60.4205 151.739 59.3864 151.074 58.0455C150.41 56.7045 150.077 55.1136 150.077 53.2727C150.077 51.4318 150.41 49.8409 151.074 48.5C151.739 47.1591 152.651 46.125 153.81 45.3977C154.969 44.6705 156.293 44.3068 157.782 44.3068C158.662 44.3068 159.489 44.4347 160.262 44.6903C161.04 44.946 161.742 45.321 162.367 45.8153C162.992 46.304 163.515 46.9006 163.935 47.6051C164.356 48.304 164.645 49.1023 164.804 50Z"/>
</mask>
<path d="M80.1136 62H78.3136L80.1136 63.8V62ZM80.1136 44.5455V42.7455L78.3136 44.5455H80.1136ZM90.0852 45.5938L89.1819 47.1507L89.1874 47.1539L90.0852 45.5938ZM92.8551 48.5852L91.2409 49.3817L91.2423 49.3845L92.8551 48.5852ZM92.8466 57.9347L94.4594 58.734L94.4607 58.7312L92.8466 57.9347ZM90.017 60.9517L90.9016 62.5194L90.907 62.5163L90.017 60.9517ZM82.2273 60.125H80.4273L82.2273 61.925V60.125ZM91.0824 49.5994L89.4409 50.3381L89.4425 50.3415L91.0824 49.5994ZM89.0199 47.2472L88.091 48.789L88.098 48.7932L89.0199 47.2472ZM82.2273 46.4205V44.6205L80.4273 46.4205H82.2273ZM85.5 62V60.2H80.1136V62V63.8H85.5V62ZM80.1136 62H81.9136V44.5455H80.1136H78.3136V62H80.1136ZM80.1136 44.5455V46.3455H85.7386V44.5455V42.7455H80.1136V44.5455ZM85.7386 44.5455V46.3455C87.1828 46.3455 88.3054 46.6421 89.1819 47.1507L90.0852 45.5938L90.9885 44.0368C89.456 43.1477 87.6808 42.7455 85.7386 42.7455V44.5455ZM90.0852 45.5938L89.1874 47.1539C90.0687 47.661 90.7494 48.3856 91.2409 49.3817L92.8551 48.5852L94.4693 47.7887C93.6767 46.1826 92.5108 44.9128 90.983 44.0336L90.0852 45.5938ZM92.8551 48.5852L91.2423 49.3845C91.7344 50.3773 92.0182 51.6415 92.0182 53.2386H93.8182H95.6182C95.6182 51.2221 95.26 49.384 94.4679 47.7859L92.8551 48.5852ZM93.8182 53.2386H92.0182C92.0182 54.846 91.7319 56.126 91.2325 57.1381L92.8466 57.9347L94.4607 58.7312C95.2567 57.1183 95.6182 55.2676 95.6182 53.2386H93.8182ZM92.8466 57.9347L91.2338 57.1353C90.7414 58.1287 90.0462 58.8643 89.1271 59.3871L90.017 60.9517L90.907 62.5163C92.4652 61.63 93.6563 60.3542 94.4594 58.734L92.8466 57.9347ZM90.017 60.9517L89.1325 59.384C88.2227 59.8974 87.0382 60.2 85.5 60.2V62V63.8C87.5073 63.8 89.3342 63.4037 90.9016 62.5194L90.017 60.9517ZM82.2273 60.125V61.925H85.3636V60.125V58.325H82.2273V60.125ZM85.3636 60.125V61.925C87.0299 61.925 88.5644 61.6041 89.8627 60.8422L88.9517 59.2898L88.0407 57.7373C87.4413 58.0891 86.5838 58.325 85.3636 58.325V60.125ZM88.9517 59.2898L89.8627 60.8422C91.1411 60.092 92.0984 59.0123 92.7135 57.6547L91.0739 56.9119L89.4343 56.1691C89.1175 56.8684 88.66 57.3739 88.0407 57.7373L88.9517 59.2898ZM91.0739 56.9119L92.7135 57.6547C93.3087 56.3409 93.5727 54.8512 93.5727 53.2386H91.7727H89.9727C89.9727 54.467 89.7709 55.4261 89.4343 56.1691L91.0739 56.9119ZM91.7727 53.2386H93.5727C93.5727 51.6386 93.3119 50.1602 92.7223 48.8573L91.0824 49.5994L89.4425 50.3415C89.7734 51.0727 89.9727 52.0205 89.9727 53.2386H91.7727ZM91.0824 49.5994L92.7238 48.8608C92.1207 47.5204 91.1908 46.4459 89.9417 45.7011L89.0199 47.2472L88.098 48.7932C88.6785 49.1393 89.1236 49.633 89.4409 50.3381L91.0824 49.5994ZM89.0199 47.2472L89.9488 45.7054C88.6859 44.9445 87.204 44.6205 85.6023 44.6205V46.4205V48.2205C86.7278 48.2205 87.5243 48.4475 88.091 48.789L89.0199 47.2472ZM85.6023 46.4205V44.6205H82.2273V46.4205V48.2205H85.6023V46.4205ZM82.2273 46.4205H80.4273V60.125H82.2273H84.0273V46.4205H82.2273ZM102.164 62H100.364L102.164 63.8V62ZM102.164 44.5455V42.7455L100.364 44.5455H102.164ZM112.698 44.5455H114.498L112.698 42.7455V44.5455ZM112.698 46.4205V48.2205L114.498 46.4205H112.698ZM104.277 46.4205V44.6205L102.477 46.4205H104.277ZM104.277 52.3182H102.477L104.277 54.1182V52.3182ZM112.152 52.3182H113.952L112.152 50.5182V52.3182ZM112.152 54.1932V55.9932L113.952 54.1932H112.152ZM104.277 54.1932V52.3932L102.477 54.1932H104.277ZM104.277 60.125H102.477L104.277 61.925V60.125ZM112.834 60.125H114.634L112.834 58.325V60.125ZM112.834 62V63.8L114.634 62H112.834ZM102.164 62H103.964V44.5455H102.164H100.364V62H102.164ZM102.164 44.5455V46.3455H112.698V44.5455V42.7455H102.164V44.5455ZM112.698 44.5455H110.898V46.4205H112.698H114.498V44.5455H112.698ZM112.698 46.4205V44.6205H104.277V46.4205V48.2205H112.698V46.4205ZM104.277 46.4205H102.477V52.3182H104.277H106.077V46.4205H104.277ZM104.277 52.3182V54.1182H112.152V52.3182V50.5182H104.277V52.3182ZM112.152 52.3182H110.352V54.1932H112.152H113.952V52.3182H112.152ZM112.152 54.1932V52.3932H104.277V54.1932V55.9932H112.152V54.1932ZM104.277 54.1932H102.477V60.125H104.277H106.077V54.1932H104.277ZM104.277 60.125V61.925H112.834V60.125V58.325H104.277V60.125ZM112.834 60.125H111.034V62H112.834H114.634V60.125H112.834ZM112.834 62V60.2H102.164V62V63.8H112.834V62ZM121.307 62H119.507L121.307 63.8V62ZM121.307 44.5455V42.7455L119.507 44.5455H121.307ZM123.421 44.5455H125.221L123.421 42.7455V44.5455ZM123.421 60.125H121.621L123.421 61.925V60.125ZM131.535 60.125H133.335L131.535 58.325V60.125ZM131.535 62V63.8L133.335 62H131.535ZM121.307 62H123.107V44.5455H121.307H119.507V62H121.307ZM121.307 44.5455V46.3455H123.421V44.5455V42.7455H121.307V44.5455ZM123.421 44.5455H121.621V60.125H123.421H125.221V44.5455H123.421ZM123.421 60.125V61.925H131.535V60.125V58.325H123.421V60.125ZM131.535 60.125H129.735V62H131.535H133.335V60.125H131.535ZM131.535 62V60.2H121.307V62V63.8H131.535V62ZM141.721 44.5455H143.521L141.721 42.7455V44.5455ZM141.721 62V63.8L143.521 62H141.721ZM139.607 62H137.807L139.607 63.8V62ZM139.607 44.5455V42.7455L137.807 44.5455H139.607ZM141.721 44.5455H139.921V62H141.721H143.521V44.5455H141.721ZM141.721 62V60.2H139.607V62V63.8H141.721V62ZM139.607 62H141.407V44.5455H139.607H137.807V62H139.607ZM139.607 44.5455V46.3455H141.721V44.5455V42.7455H139.607V44.5455ZM164.804 50V51.8L166.577 49.6859L164.804 50ZM162.691 50L160.928 50.3625L162.691 51.8V50ZM162.035 48.3977L160.537 49.3962L160.545 49.4089L162.035 48.3977ZM160.91 47.2386L159.851 48.6944L159.872 48.7097L160.91 47.2386ZM159.452 46.5227L158.938 48.2478L158.938 48.2478L159.452 46.5227ZM154.91 47.0852L153.958 45.5571L153.954 45.56L154.91 47.0852ZM152.873 49.446L151.254 48.6588L151.25 48.666L152.873 49.446ZM152.873 57.0994L151.25 57.8795L151.254 57.8867L152.873 57.0994ZM154.91 59.4602L153.954 60.9855L153.958 60.9883L154.91 59.4602ZM159.452 60.0227L158.938 58.2976L158.938 58.2976L159.452 60.0227ZM160.91 59.3153L161.956 60.7801L161.959 60.7775L160.91 59.3153ZM162.035 58.1477L160.54 57.1451L160.537 57.1493L162.035 58.1477ZM162.691 56.5455V54.7455L160.928 56.1797L162.691 56.5455ZM164.804 56.5455L166.576 56.8615L164.804 54.7455V56.5455ZM163.935 58.9403L162.389 58.0179L162.389 58.0179L163.935 58.9403ZM162.367 60.7386L163.476 62.1567L163.484 62.1504L162.367 60.7386ZM160.262 61.8551L159.7 60.145L159.696 60.1462L160.262 61.8551ZM153.81 61.1477L152.853 62.6724L152.853 62.6724L153.81 61.1477ZM151.074 58.0455L152.687 57.2459L152.687 57.2459L151.074 58.0455ZM160.262 44.6903L159.696 46.3992L159.7 46.4005L160.262 44.6903ZM162.367 45.8153L161.25 47.2272L161.258 47.2334L162.367 45.8153ZM163.935 47.6051L162.389 48.5275L162.393 48.5331L163.935 47.6051ZM164.804 50V48.2H162.691V50V51.8H164.804V50ZM162.691 50L164.454 49.6375C164.287 48.8243 163.984 48.0644 163.524 47.3866L162.035 48.3977L160.545 49.4089C160.71 49.6516 160.845 49.9598 160.928 50.3625L162.691 50ZM162.035 48.3977L163.532 47.3993C163.105 46.7583 162.575 46.2105 161.947 45.7676L160.91 47.2386L159.872 48.7097C160.13 48.8918 160.351 49.1167 160.537 49.3962L162.035 48.3977ZM160.91 47.2386L161.968 45.7829C161.361 45.3411 160.69 45.0132 159.966 44.7976L159.452 46.5227L158.938 48.2478C159.283 48.3504 159.583 48.4998 159.851 48.6944L160.91 47.2386ZM159.452 46.5227L159.966 44.7976C159.259 44.5869 158.528 44.4841 157.782 44.4841V46.2841V48.0841C158.194 48.0841 158.578 48.1404 158.938 48.2478L159.452 46.5227ZM157.782 46.2841V44.4841C156.405 44.4841 155.115 44.837 153.958 45.5571L154.91 47.0852L155.861 48.6133C156.42 48.2653 157.045 48.0841 157.782 48.0841V46.2841ZM154.91 47.0852L153.954 45.56C152.775 46.2986 151.884 47.3621 151.254 48.6588L152.873 49.446L154.491 50.2333C154.872 49.4504 155.34 48.94 155.865 48.6105L154.91 47.0852ZM152.873 49.446L151.25 48.666C150.603 50.0124 150.323 51.5716 150.323 53.2727H152.123H153.923C153.923 51.9511 154.142 50.9592 154.495 50.2261L152.873 49.446ZM152.123 53.2727H150.323C150.323 54.9739 150.603 56.5331 151.25 57.8795L152.873 57.0994L154.495 56.3194C154.142 55.5863 153.923 54.5943 153.923 53.2727H152.123ZM152.873 57.0994L151.254 57.8867C151.884 59.1834 152.775 60.2468 153.954 60.9855L154.91 59.4602L155.865 57.935C155.34 57.6055 154.872 57.0951 154.491 56.3122L152.873 57.0994ZM154.91 59.4602L153.958 60.9883C155.115 61.7085 156.405 62.0614 157.782 62.0614V60.2614V58.4614C157.045 58.4614 156.42 58.2802 155.861 57.9321L154.91 59.4602ZM157.782 60.2614V62.0614C158.528 62.0614 159.259 61.9585 159.966 61.7478L159.452 60.0227L158.938 58.2976C158.578 58.4051 158.194 58.4614 157.782 58.4614V60.2614ZM159.452 60.0227L159.966 61.7478C160.684 61.534 161.351 61.2124 161.956 60.7801L160.91 59.3153L159.863 57.8506C159.594 58.0433 159.289 58.1932 158.938 58.2976L159.452 60.0227ZM160.91 59.3153L161.959 60.7775C162.581 60.3312 163.107 59.7841 163.532 59.1462L162.035 58.1477L160.537 57.1493C160.348 57.4318 160.124 57.6631 159.86 57.8532L160.91 59.3153ZM162.035 58.1477L163.529 59.1504C163.983 58.4736 164.286 57.7191 164.453 56.9112L162.691 56.5455L160.928 56.1797C160.846 56.5764 160.711 56.89 160.54 57.1451L162.035 58.1477ZM162.691 56.5455V58.3455H164.804V56.5455V54.7455H162.691V56.5455ZM164.804 56.5455L163.032 56.2294C162.907 56.9296 162.687 57.5187 162.389 58.0179L163.935 58.9403L165.481 59.8628C166.024 58.9529 166.383 57.9454 166.576 56.8615L164.804 56.5455ZM163.935 58.9403L162.389 58.0179C162.078 58.5403 161.699 58.9722 161.25 59.3268L162.367 60.7386L163.484 62.1504C164.285 61.5164 164.952 60.7495 165.481 59.8628L163.935 58.9403ZM162.367 60.7386L161.258 59.3206C160.803 59.6768 160.287 59.9521 159.7 60.145L160.262 61.8551L160.824 63.5652C161.793 63.2467 162.681 62.7778 163.476 62.1567L162.367 60.7386ZM160.262 61.8551L159.696 60.1462C159.12 60.3368 158.486 60.4386 157.782 60.4386V62.2386V64.0386C158.839 64.0386 159.858 63.8848 160.827 63.564L160.262 61.8551ZM157.782 62.2386V60.4386C156.601 60.4386 155.614 60.1547 154.767 59.623L153.81 61.1477L152.853 62.6724C154.324 63.5953 155.985 64.0386 157.782 64.0386V62.2386ZM153.81 61.1477L154.767 59.623C153.915 59.0887 153.219 58.3181 152.687 57.2459L151.074 58.0455L149.462 58.845C150.26 60.4546 151.387 61.7522 152.853 62.6724L153.81 61.1477ZM151.074 58.0455L152.687 57.2459C152.17 56.2041 151.877 54.8989 151.877 53.2727H150.077H148.277C148.277 55.3284 148.649 57.2049 149.462 58.845L151.074 58.0455ZM150.077 53.2727H151.877C151.877 51.6466 152.17 50.3413 152.687 49.2995L151.074 48.5L149.462 47.7005C148.649 49.3405 148.277 51.2171 148.277 53.2727H150.077ZM151.074 48.5L152.687 49.2995C153.219 48.2274 153.915 47.4568 154.767 46.9224L153.81 45.3977L152.853 43.873C151.387 44.7932 150.26 46.0908 149.462 47.7005L151.074 48.5ZM153.81 45.3977L154.767 46.9224C155.614 46.3908 156.601 46.1068 157.782 46.1068V44.3068V42.5068C155.985 42.5068 154.324 42.9501 152.853 43.873L153.81 45.3977ZM157.782 44.3068V46.1068C158.486 46.1068 159.12 46.2086 159.696 46.3992L160.262 44.6903L160.827 42.9815C159.858 42.6607 158.839 42.5068 157.782 42.5068V44.3068ZM160.262 44.6903L159.7 46.4005C160.283 46.592 160.796 46.8678 161.25 47.2271L162.367 45.8153L163.484 44.4035C162.688 43.7742 161.797 43.3001 160.824 42.9802L160.262 44.6903ZM162.367 45.8153L161.258 47.2334C161.702 47.5805 162.079 48.0071 162.389 48.5275L163.935 47.6051L165.481 46.6827C164.95 45.794 164.282 45.0274 163.476 44.3973L162.367 45.8153ZM163.935 47.6051L162.393 48.5331C162.687 49.0221 162.907 49.6079 163.032 50.3141L164.804 50L166.577 49.6859C166.384 48.5967 166.024 47.5858 165.477 46.6772L163.935 47.6051Z" fill="#00B9C7" mask="url(#path-6-outside-2_1_52)"/>
</svg>
